HIERARCHY
ROOT SpineBase
{
  OFFSET 0.000000 0.000000 0.000000
  CHANNELS 6 Xposition Yposition Zposition Zrotation Xrotation Yrotation
  JOINT SpineMid
  {
    OFFSET -0.000000 30.106586 0.000000
    CHANNELS 3 Zrotation Xrotation Yrotation
    JOINT SpineShoulder
    {
      OFFSET 0.072741 22.219418 -0.633346
      CHANNELS 3 Zrotation Xrotation Yrotation
      JOINT Neck
      {
        OFFSET 0.052150 7.311555 -0.512551
        CHANNELS 3 Zrotation Xrotation Yrotation
        JOINT Head
        {
          OFFSET 6.501968 10.163831 5.290332
          CHANNELS 3 Zrotation Xrotation Yrotation
          End Site
          {
            OFFSET 0 0 0
          }
        }
      }
      JOINT ShoulderLeft
      {
        OFFSET -10.004094 -1.977126 -13.345676
        CHANNELS 3 Zrotation Xrotation Yrotation
        JOINT ElbowLeft
        {
          OFFSET -7.406550 -24.588070 -8.102505
          CHANNELS 3 Zrotation Xrotation Yrotation
          JOINT WristLeft
          {
            OFFSET 0.993204 -22.832586 -6.777411
            CHANNELS 3 Zrotation Xrotation Yrotation
            JOINT HandLeft
            {
              OFFSET 0.549730 -6.356705 -0.124919
              CHANNELS 3 Zrotation Xrotation Yrotation
              JOINT HandTipLeft
              {
                OFFSET 1.347446 -5.637199 -0.969874
                CHANNELS 3 Zrotation Xrotation Yrotation
                End Site
                {
                  OFFSET 0 0 0
                }
              }
              JOINT ThumbLeft
              {
                OFFSET -4.486449 -0.218227 -1.427023
                CHANNELS 3 Zrotation Xrotation Yrotation
                End Site
                {
                  OFFSET 0 0 0
                }
              }
            }
          }
        }
      }
      JOINT ShoulderRight
      {
        OFFSET 10.606526 -7.680059 13.716622
        CHANNELS 3 Zrotation Xrotation Yrotation
        JOINT ElbowRight
        {
          OFFSET 2.437595 -26.770228 0.857552
          CHANNELS 3 Zrotation Xrotation Yrotation
          JOINT WristRight
          {
            OFFSET -2.282263 -25.084741 -0.012389
            CHANNELS 3 Zrotation Xrotation Yrotation
            JOINT HandRight
            {
              OFFSET 0.239406 -3.083109 0.626120
              CHANNELS 3 Zrotation Xrotation Yrotation
              JOINT HandTipRight
              {
                OFFSET 0.213153 -3.104793 -1.108403
                CHANNELS 3 Zrotation Xrotation Yrotation
                End Site
                {
                  OFFSET 0 0 0
                }
              }
              JOINT ThumbRight
              {
                OFFSET 0.988973 0.702875 -1.135017
                CHANNELS 3 Zrotation Xrotation Yrotation
                End Site
                {
                  OFFSET 0 0 0
                }
              }
            }
          }
        }
      }
    }
  }
  JOINT HipLeft
  {
    OFFSET -3.223863 1.320241 -9.128069
    CHANNELS 3 Zrotation Xrotation Yrotation
    JOINT KneeLeft
    {
      OFFSET -15.104934 -39.845219 -9.613501
      CHANNELS 3 Zrotation Xrotation Yrotation
      JOINT AnkleLeft
      {
        OFFSET -13.003837 -38.714177 0.555926
        CHANNELS 3 Zrotation Xrotation Yrotation
        JOINT FootLeft
        {
          OFFSET 4.830030 -3.205122 -7.089168
          CHANNELS 3 Zrotation Xrotation Yrotation
          End Site
          {
            OFFSET 0 0 0
          }
        }
      }
    }
  }
  JOINT HipRight
  {
    OFFSET 3.664301 -0.337754 1.823315
    CHANNELS 3 Zrotation Xrotation Yrotation
    JOINT KneeRight
    {
      OFFSET -3.345978 -40.859755 5.428618
      CHANNELS 3 Zrotation Xrotation Yrotation
      JOINT AnkleRight
      {
        OFFSET -3.761293 -35.279794 7.014980
        CHANNELS 3 Zrotation Xrotation Yrotation
        JOINT FootRight
        {
          OFFSET 5.814200 -2.768371 -7.650068
          CHANNELS 3 Zrotation Xrotation Yrotation
          End Site
          {
            OFFSET 0 0 0
          }
        }
      }
    }
  }
}
MOTION
Frames: 16
Frame Time: 0.033333
-21.496188 80.444277 338.189491 0.000000 0.000000 -57.831066 -0.000000 -0.000000 57.831066 -0.000000 0.000000 0.000000 -0.000000 0.000000 0.000000 0.000000 0.000000 0.000000 -0.000000 0.000000 0.000000 -0.000000 0.000000 0.000000 -0.000000 0.000000 0.000000 -0.000000 0.000000 0.000000 0.000000 0.000000 0.000000 0.000000 0.000000 0.000000 -0.000000 0.000000 0.000000 -0.000000 0.000000 0.000000 -0.000000 0.000000 0.000000 -0.000000 0.000000 0.000000 0.000000 0.000000 0.000000 0.000000 0.000000 0.000000 -0.000000 -0.000000 57.831066 -0.000000 0.000000 0.000000 -0.000000 0.000000 0.000000 0.000000 0.000000 0.000000 -0.000000 -0.000000 57.831066 -0.000000 0.000000 0.000000 -0.000000 0.000000 0.000000 0.000000 0.000000 0.000000
-21.234076 80.729915 338.428316 -0.125421 0.144945 -58.161120 0.189300 0.030086 58.161229 -0.000000 0.000000 0.000000 -0.000000 0.000000 0.000000 0.000000 0.000000 0.000000 0.597123 -1.650797 0.311092 0.569754 0.009172 -0.730040 -1.563326 2.722997 0.552783 -1.354561 1.063476 0.714935 0.000000 0.000000 0.000000 0.000000 0.000000 0.000000 -0.000000 0.000000 0.000000 0.887566 1.982487 -0.196321 -7.592086 2.423574 -0.839800 7.296100 -8.295180 0.913834 0.000000 0.000000 0.000000 0.000000 0.000000 0.000000 0.189300 0.030086 58.161229 1.248240 -2.558015 0.908171 -1.208775 2.576889 -0.853113 0.000000 0.000000 0.000000 0.189300 0.030086 58.161229 -0.000000 0.000000 0.000000 -0.000000 0.000000 0.000000 0.000000 0.000000 0.000000
-21.008200 80.970172 338.623430 -0.223723 0.287562 -58.420699 0.362137 0.040004 58.421134 -0.000000 0.000000 0.000000 -0.676424 -0.731722 0.815485 0.000000 0.000000 0.000000 1.034538 -2.936357 0.576729 1.112790 0.017977 -1.348242 -3.003687 5.384900 1.116047 -2.301729 1.112074 1.144090 0.000000 0.000000 0.000000 0.000000 0.000000 0.000000 -0.288720 -1.001238 -0.102938 2.098825 4.722281 -0.332466 -12.845997 3.946367 -1.380329 12.404475 -13.702859 1.869163 0.000000 0.000000 0.000000 0.000000 0.000000 0.000000 0.957007 0.812189 58.220966 1.341877 -4.425216 1.850080 -1.561494 5.221841 -1.860596 0.000000 0.000000 0.000000 -0.736264 -0.324339 58.239698 0.887969 -0.742142 0.184461 -0.000000 0.000000 0.000000 0.000000 0.000000 0.000000
-20.818559 81.165047 338.774833 -0.294477 0.427544 -58.609753 0.518349 0.028689 58.610722 -0.000000 0.000000 0.000000 -0.946279 -0.973249 1.106148 0.000000 0.000000 0.000000 1.303641 -3.847661 0.785000 1.614834 0.069812 -1.836100 -4.278796 7.929429 1.657732 -2.844967 0.183731 1.264473 0.000000 0.000000 0.000000 0.000000 0.000000 0.000000 -0.453055 -1.519608 -0.158889 3.211466 6.693435 -0.524285 -16.526361 4.999198 -1.746267 15.980037 -17.302313 2.690423 0.000000 0.000000 0.000000 0.000000 0.000000 0.000000 1.665547 0.891393 58.479844 1.799416 -5.399650 2.319118 -1.899735 7.039654 -2.585291 0.000000 0.000000 0.000000 -0.982433 -0.428714 58.364246 1.176675 -1.037840 0.251895 -0.000000 0.000000 0.000000 0.000000 0.000000 0.000000
-20.665154 81.314541 338.882525 -0.337364 0.564591 -58.728356 0.657686 -0.004719 58.730046 -0.000000 0.000000 0.000000 -1.170639 -1.128670 1.317952 0.000000 0.000000 0.000000 1.398779 -4.380585 0.927810 2.065077 0.198008 -2.179354 -5.344787 10.292422 2.144653 -3.003735 -1.669264 1.083435 0.000000 0.000000 0.000000 0.000000 0.000000 0.000000 -0.630820 -2.049719 -0.218136 4.345269 8.362895 -0.720870 -19.079071 5.865802 -1.956692 18.416739 -19.698155 3.322515 0.000000 0.000000 0.000000 0.000000 0.000000 0.000000 2.531124 0.751380 58.786011 2.085000 -5.566734 2.445876 -1.970648 8.321655 -3.190133 0.000000 0.000000 0.000000 -1.151660 -0.494075 58.435802 1.364166 -1.285490 0.301672 -0.000000 0.000000 0.000000 0.000000 0.000000 0.000000
-20.547985 81.418654 338.946506 -0.352172 0.698418 -58.776655 0.779808 -0.060868 58.779216 -0.000000 0.000000 0.000000 -1.349472 -1.196402 1.450612 0.000000 0.000000 0.000000 1.317348 -4.534475 1.001149 2.455515 0.422919 -2.367672 -6.158412 12.402553 2.544770 -2.805662 -4.386719 0.633213 0.000000 0.000000 0.000000 0.000000 0.000000 0.000000 -0.822104 -2.591477 -0.280921 5.483455 9.713885 -0.911533 -20.744116 6.727311 -1.997415 19.940689 -21.230133 3.745308 0.000000 0.000000 0.000000 0.000000 0.000000 0.000000 3.555099 0.392051 59.145356 2.194446 -4.932367 2.217280 -1.789209 9.063423 -3.673335 0.000000 0.000000 0.000000 -1.246282 -0.520220 58.454576 1.938140 -2.150912 0.515583 -0.480398 0.668840 -0.164143 0.000000 0.000000 0.000000
-20.479373 81.476435 338.916469 -0.261044 0.799689 -58.780536 0.819191 -0.191234 58.783725 -0.000000 0.000000 0.000000 -1.863768 -1.005781 1.587888 0.000000 0.000000 0.000000 0.926460 -4.125288 0.985313 2.980423 0.820747 -2.393884 -7.305907 15.342860 3.079437 -1.775666 -10.223852 -0.454774 0.000000 0.000000 0.000000 0.000000 0.000000 0.000000 -1.106312 -3.479898 -0.385974 7.302927 10.337951 -1.061813 -22.568839 8.923990 -1.657308 22.470725 -23.219208 4.096395 0.000000 0.000000 0.000000 0.000000 0.000000 0.000000 5.085687 -0.485633 59.792215 1.844816 -2.212772 1.116059 -0.055565 9.176544 -4.883940 0.000000 0.000000 0.000000 -1.393597 -0.518542 58.439014 1.892126 -2.632148 0.556944 -0.569935 1.234945 0.815045 0.000000 0.000000 0.000000
-20.446517 81.465107 338.867938 -0.208067 0.918861 -58.657696 -0.009368 -0.026644 58.649421 0.097993 0.028623 -0.005853 -1.750727 -1.745931 1.460436 0.000000 0.000000 0.000000 0.522543 -4.225794 0.907413 3.406801 1.116261 -2.223853 -7.538008 16.928405 3.271223 -0.609024 -15.626635 -1.485004 0.000000 0.000000 0.000000 0.000000 0.000000 0.000000 -1.248815 -5.164021 -0.485404 8.534812 11.641136 -1.299525 -22.644889 10.327014 -1.257473 20.417942 -22.119968 4.148504 0.000000 0.000000 0.000000 0.000000 0.000000 0.000000 6.672009 -1.484880 60.408234 1.518045 0.969409 -0.168620 2.194814 9.010194 -6.472250 0.000000 0.000000 0.000000 -1.337125 -0.446026 58.326326 1.629704 -2.916094 0.537028 -0.451499 1.449462 0.910417 0.000000 0.000000 0.000000
-20.416923 81.430971 338.838960 -0.146413 1.037558 -58.491902 -0.025883 0.044478 58.486492 0.128957 0.066969 0.000521 -1.995910 -1.796003 1.393489 0.000000 0.000000 0.000000 -0.180256 -3.462035 0.759117 3.547501 1.704541 -1.898638 -6.609266 16.462691 2.969058 0.007085 -18.843079 -2.124311 0.000000 0.000000 0.000000 0.000000 0.000000 0.000000 -1.635294 -5.894796 -0.576890 9.409799 12.723739 -1.511526 -20.662115 9.617948 -0.953799 19.769179 -23.504042 3.180239 0.000000 0.000000 0.000000 0.000000 0.000000 0.000000 8.033147 -2.441961 60.938837 1.296254 3.739680 -1.280953 0.857802 6.843317 -4.140210 0.000000 0.000000 0.000000 -1.172899 -0.344654 58.190053 1.194399 -3.041653 0.466686 -0.260079 1.594426 1.076955 0.000000 0.000000 0.000000
-20.430579 81.378898 338.787656 -0.119861 1.182496 -58.264457 -0.008035 0.111989 58.261801 0.157887 0.087630 0.006052 -1.783484 -1.932876 1.186777 0.000000 0.000000 0.000000 -0.901742 -2.719412 0.644136 3.220873 2.277992 -1.435046 -4.711290 16.647731 2.548887 -0.655764 -21.498505 -2.669902 0.000000 0.000000 0.000000 0.000000 0.000000 0.000000 -1.921520 -6.304987 -0.630694 10.205727 13.385218 -1.700648 -20.314961 8.900207 -0.948078 19.154759 -19.510351 2.756007 0.000000 0.000000 0.000000 0.000000 0.000000 0.000000 9.112129 -3.190076 61.257557 1.294092 5.696530 -2.074968 0.941231 6.098878 -3.714941 0.000000 0.000000 0.000000 -0.882710 -0.234746 58.004935 0.711146 -3.033333 0.375159 -0.063306 1.677939 1.248961 0.000000 0.000000 0.000000
-20.463397 81.302817 338.729395 -0.092164 1.317254 -58.053901 0.041188 0.159831 58.054138 0.174103 0.081357 0.010982 -1.315267 -1.964549 0.845391 0.000000 0.000000 0.000000 -1.543786 -1.900010 0.517028 3.082295 2.841940 -1.031522 -4.953964 16.731746 2.514678 0.645804 -23.933564 -2.856710 0.000000 0.000000 0.000000 0.000000 0.000000 0.000000 -2.078247 -6.267041 -0.631238 10.371330 13.548545 -1.762158 -19.162133 8.583439 -0.745252 19.080795 -18.328585 2.239997 0.000000 0.000000 0.000000 0.000000 0.000000 0.000000 9.796764 -3.669495 61.382487 1.245721 6.962372 -2.571942 1.015489 5.586780 -3.350215 0.000000 0.000000 0.000000 -0.605663 -0.152622 57.833584 0.282075 -3.009552 0.293231 0.101213 1.761432 1.437951 0.000000 0.000000 0.000000
-20.516177 81.239476 338.649867 -0.075065 1.464583 -57.856870 0.115455 0.175618 57.859406 0.180659 0.064466 0.014328 -0.316154 -1.524639 -0.015480 0.000000 0.000000 0.000000 -1.996465 -1.089677 0.366784 2.763339 3.295840 -0.590659 -5.871384 17.128638 2.607947 2.141287 -25.977385 -2.864106 0.000000 0.000000 0.000000 0.000000 0.000000 0.000000 -2.044852 -5.743199 -0.564843 10.327238 12.877838 -1.714834 -21.411031 9.803314 -0.985529 23.908306 -22.121551 3.325120 0.000000 0.000000 0.000000 0.000000 0.000000 0.000000 10.231315 -3.953375 61.364578 1.238771 7.633777 -2.831019 0.997480 5.351177 -3.079031 0.000000 0.000000 0.000000 -0.320203 -0.104723 57.672080 -0.021894 -3.016734 0.242136 0.171168 1.888087 1.616549 0.000000 0.000000 0.000000
-20.577303 81.184605 338.560622 -0.066589 1.625207 -57.612147 0.191456 0.173618 57.616406 0.183138 0.053063 0.016385 0.478300 -2.236849 -0.029373 0.000000 0.000000 0.000000 -2.285104 -0.405322 0.214847 2.451220 3.536724 -0.205821 -7.149679 17.139100 2.706063 4.335235 -26.527800 -2.402416 0.000000 0.000000 0.000000 0.000000 0.000000 0.000000 -2.206664 -5.623339 -0.560194 10.608668 13.317900 -1.834722 -23.827223 10.190105 -1.419595 26.109416 -22.703913 4.420914 0.000000 0.000000 0.000000 0.000000 0.000000 0.000000 10.434677 -4.071050 61.153316 1.203593 7.591605 -2.803229 0.927029 5.543747 -2.909684 0.000000 0.000000 0.000000 -0.047840 -0.139591 57.452514 -0.154150 -3.010410 0.223719 0.146036 2.034428 1.829908 0.000000 0.000000 0.000000
-20.640123 81.146305 338.478618 -0.061568 1.770816 -57.270573 0.264454 0.161105 57.276215 0.181334 0.036563 0.017647 1.505608 -2.494516 -0.423511 0.000000 0.000000 0.000000 -2.497370 0.124289 0.099490 2.104251 3.794116 0.123893 -7.465981 17.112842 2.663622 4.861560 -27.238806 -2.360573 0.000000 0.000000 0.000000 0.000000 0.000000 0.000000 -2.261656 -5.621153 -0.559941 10.764514 14.073204 -1.990687 -24.685866 10.898216 -1.478048 26.208461 -24.069042 5.088566 0.000000 0.000000 0.000000 0.000000 0.000000 0.000000 10.413645 -4.021476 60.706545 1.019403 7.038835 -2.543452 0.925726 5.992397 -2.812732 0.000000 0.000000 0.000000 0.169554 -0.162978 57.130361 -0.265342 -3.074559 0.214747 0.117520 2.218882 2.062605 0.000000 0.000000 0.000000
-20.699900 81.134412 338.403352 -0.057968 1.913569 -56.885759 0.300689 0.151052 56.892030 0.174024 0.031604 0.017488 2.523279 -2.900565 -0.723620 0.000000 0.000000 0.000000 -2.593412 0.408700 0.014216 1.760729 4.032211 0.377415 -7.537511 15.717174 2.382129 5.153459 -26.040095 -2.175606 0.000000 0.000000 0.000000 0.000000 0.000000 0.000000 -2.272585 -5.718005 -0.563141 10.815324 14.940279 -2.148279 -25.210701 11.478286 -1.511570 26.006220 -29.788048 5.796638 0.000000 0.000000 0.000000 0.000000 0.000000 0.000000 10.349531 -3.983791 60.210600 0.888044 6.470955 -2.290356 0.906500 6.416476 -2.729665 0.000000 0.000000 0.000000 0.339243 -0.192318 56.757964 -0.289489 -3.168145 0.225904 0.035263 2.391469 2.264777 0.000000 0.000000 0.000000
-20.748902 81.153842 338.347838 -0.049222 2.014881 -56.579182 0.318854 0.142348 56.585758 0.164887 0.015822 0.017192 3.242663 -3.290218 -0.856831 0.000000 0.000000 0.000000 -2.607315 0.670583 -0.076620 1.416964 4.039548 0.597536 -7.478314 13.933967 2.030154 4.600289 -22.462340 -1.660599 0.000000 0.000000 0.000000 0.000000 0.000000 0.000000 -2.272075 -5.815360 -0.568228 10.789706 15.612646 -2.257524 -25.443961 11.781102 -1.540236 24.942252 -29.848899 5.955895 0.000000 0.000000 0.000000 0.000000 0.000000 0.000000 10.246195 -3.914570 59.787303 0.738445 5.897276 -2.034549 0.909761 6.834481 -2.645534 0.000000 0.000000 0.000000 0.456254 -0.182501 56.463115 -0.308466 -3.305385 0.243186 -0.063766 2.580437 2.462328 0.000000 0.000000 0.000000
